# xmcd
#
# Track frame offsets: 
#        150
#        15671
#        36139
#        62281
#        90754
#
# Disc length: 1505 seconds
#
# Revision: 0
# Processed by: cddbd v1.5.2PL0 Copyright (c) Steve Scherf et al.
# Submitted via: ExactAudioCopy v1.0b1
#
DISCID=2805df05
DTITLE=Blackwood - Ride On The Rhythm CDM
DYEAR=1997
DGENRE=Eurodance
TTITLE0=Ride On The Rhythm (Remix By Marascia)
TTITLE1=Ride On The Rhythm (Radio Version)
TTITLE2=Ride On The Rhythm (Extended Version)
TTITLE3=Ride On The Rhythm (Club Version)
TTITLE4=Ride On The Rhythm (Remix By Stefano Noferini)
EXTD=
EXTT0=
EXTT1=
EXTT2=
EXTT3=
EXTT4=
PLAYORDER=
